<?xml version="1.0" encoding="utf-8"?>
<!-- Generator: Adobe Illustrator 23.0.1, SVG Export Plug-In . SVG Version: 6.00 Build 0)  -->
<svg version="1.1" id="Layer_1" xmlns="http://www.w3.org/2000/svg" xmlns:xlink="http://www.w3.org/1999/xlink" x="0px" y="0px"
	 viewBox="0 0 1417.32 1417.32" style="enable-background:new 0 0 1417.32 1417.32;" xml:space="preserve">
<style type="text/css">
	.st0{fill:#FFFFFF;}
	.st1{fill:#104E8B;}
</style>
<g>
	<path class="st0" d="M841.84,1332.16l-11.42-20.63c-27.95-50.51-68.7-76.12-121.11-76.12c-54.9,0-97.22,25.7-125.79,76.39
		l-11.47,20.36H271.57l21.67-54.73c33.17-83.77,89.65-152.79,163.34-199.59c36.37-23.1,76.85-40.84,120.3-52.71
		c43.47-11.88,89.99-17.9,138.26-17.9c192.14,0,345,101.24,408.91,270.83l20.39,54.11H841.84z M702.95,1006.21
		c-61.32,0-119.54-10.49-173.05-31.17c-53.88-20.82-101.46-51.37-141.41-90.81c-40.83-40.3-72.57-88.78-94.31-144.1
		c-22.4-56.97-33.76-120.23-33.76-188c0-69.42,11.31-134.06,33.6-192.13c21.88-56.97,53.96-106.78,95.36-148.06
		c40.86-40.74,89.85-72.25,145.62-93.66c55.56-21.33,116.68-32.14,181.64-32.14c63.93,0,123.94,11.11,178.36,33.03
		c53.63,21.6,100.73,53.2,139.98,93.91c39.03,40.48,69.27,88.92,89.9,143.97c20.78,55.45,31.31,116.42,31.31,181.21
		c0,147.63-49.34,270.19-142.67,354.45C932.46,965.91,822.16,1006.21,702.95,1006.21z M710.8,313.82
		c-51.56,0-92.05,22.77-120.35,67.68c-26.42,41.92-40.96,100.71-40.96,165.52c0,67.93,16.53,128.49,46.53,170.53
		c19.87,27.83,55.68,61.01,113.47,61.01c55.36,0,90.42-32.54,110.09-59.84c30.65-42.54,47.53-104.46,47.53-174.37
		c0-61.38-14.47-120.38-39.69-161.85C799.7,336.93,760.47,313.82,710.8,313.82z"/>
	<path class="st1" d="M716.63,126.16c239.38,0,399.56,168.5,399.56,412.13c0,295.46-207.53,427.92-413.24,427.92
		c-226.93,0-402.54-156.5-402.54-414.07C300.41,288.49,474.22,126.16,716.63,126.16 M709.49,818.56
		c116.63,0,197.62-112.48,197.62-274.21c0-126.31-55.93-270.53-196.31-270.53c-142.76,0-201.31,139.2-201.31,273.2
		C509.49,701.68,586.76,818.56,709.49,818.56 M715.14,1047.23c179.69,0,314.88,94.74,371.48,244.93h-221.2
		c-31.3-56.57-81.96-96.75-156.11-96.75c-76.13,0-128.38,39.53-160.63,96.75H330.44C391.77,1137.27,534.45,1047.23,715.14,1047.23
		 M716.63,46.16c-69.88,0-135.81,11.71-195.97,34.8c-61.02,23.42-114.69,57.96-159.53,102.67
		c-45.41,45.28-80.55,99.79-104.46,162.04c-24.06,62.66-36.26,132.12-36.26,206.47c0,72.8,12.29,140.98,36.53,202.63
		c23.81,60.55,58.61,113.68,103.44,157.93c41.11,40.57,89.51,72.56,143.99,95.2c-113.52,47.79-201.24,135.9-248.32,254.8
		l-43.34,109.45h117.72h218.24h46.74l22.95-40.72c28.31-50.22,65.46-56.03,90.94-56.03c23.78,0,58.59,5.75,86.11,55.49l22.83,41.27
		h47.16h221.2h115.64l-40.78-108.21c-16.92-44.91-39.96-86.18-68.47-122.67c-28.7-36.73-62.82-68.47-101.42-94.35
		c-24.94-16.72-51.7-30.95-79.95-42.55c47.87-20.49,91.04-47.97,128.68-81.95c71.11-64.19,155.87-182.94,155.87-384.14
		c0-69.61-11.39-135.3-33.85-195.25c-22.56-60.2-55.72-113.26-98.56-157.7c-43.19-44.8-94.94-79.54-153.84-103.25
		C850.74,58.25,785.7,46.16,716.63,46.16L716.63,46.16z M709.49,738.56c-33.19,0-59.66-14.47-80.91-44.25
		c-25.21-35.31-39.09-87.62-39.09-147.28c0-56.54,12.69-109.1,34.81-144.2c21.07-33.43,48.55-49,86.51-49
		c22.48,0,55.48,5.13,82.44,49.47c21.52,35.39,33.86,86.8,33.86,141.06c0,61.58-14.2,115.2-39.98,150.98
		C766.47,724.01,740.35,738.56,709.49,738.56L709.49,738.56z"/>
</g>
</svg>
